HIERARCHY
ROOT Hips
{
 OFFSET 0.000000 0.000000 0.000000
 CHANNELS 6 Xposition Yposition Zposition Yrotation Xrotation Zrotation
 JOINT Chest
 {
  OFFSET 0.000000 9.585900 0.002600
  CHANNELS 3 Yrotation Xrotation Zrotation
  JOINT Chest2
  {
   OFFSET 0.000000 9.601200 -0.005300
   CHANNELS 3 Yrotation Xrotation Zrotation
   JOINT Chest3
   {
    OFFSET 0.000000 9.561800 0.000000
    CHANNELS 3 Yrotation Xrotation Zrotation
    JOINT Chest4
    {
     OFFSET 0.000000 9.552100 0.000000
     CHANNELS 3 Yrotation Xrotation Zrotation
     JOINT Neck
     {
      OFFSET 0.000000 14.453000 0.000000
      CHANNELS 3 Yrotation Xrotation Zrotation
      JOINT Head
      {
       OFFSET 0.000000 8.936500 -0.011300
       CHANNELS 3 Yrotation Xrotation Zrotation
       End Site
       {
        OFFSET 0.000000 17.073600 -0.006000
       }
      }
     }
     JOINT RightCollar
     {
      OFFSET -2.921100 9.558500 0.000000
      CHANNELS 3 Yrotation Xrotation Zrotation
      JOINT RightShoulder
      {
       OFFSET -13.519700 0.000000 0.000000
       CHANNELS 3 Yrotation Xrotation Zrotation
       JOINT RightElbow
       {
        OFFSET 0.000000 -29.696600 0.000000
        CHANNELS 3 Yrotation Xrotation Zrotation
        JOINT RightWrist
        {
         OFFSET 0.000000 -24.004700 0.000000
         CHANNELS 3 Yrotation Xrotation Zrotation
         End Site
         {
          OFFSET 0.000000 -17.728500 0.000000
         }
        }
       }
      }
     }
     JOINT LeftCollar
     {
      OFFSET 2.921100 9.558500 0.000000
      CHANNELS 3 Yrotation Xrotation Zrotation
      JOINT LeftShoulder
      {
       OFFSET 13.519700 0.000000 0.000000
       CHANNELS 3 Yrotation Xrotation Zrotation
       JOINT LeftElbow
       {
        OFFSET 0.000000 -29.696600 0.000000
        CHANNELS 3 Yrotation Xrotation Zrotation
        JOINT LeftWrist
        {
         OFFSET 0.000000 -24.004700 0.000000
         CHANNELS 3 Yrotation Xrotation Zrotation
         End Site
         {
          OFFSET 0.000000 -17.728500 0.000000
         }
        }
       }
      }
     }
    }
   }
  }
 }
 JOINT RightHip
 {
  OFFSET -7.771700 -0.012900 -0.001300
  CHANNELS 3 Yrotation Xrotation Zrotation
  JOINT RightKnee
  {
   OFFSET 0.000000 -40.869800 0.001200
   CHANNELS 3 Yrotation Xrotation Zrotation
   JOINT RightAnkle
   {
    OFFSET 0.000000 -39.717900 0.002100
    CHANNELS 3 Yrotation Xrotation Zrotation
    JOINT RightToe
    {
     OFFSET 0.000000 -4.965400 11.033500
     CHANNELS 3 Yrotation Xrotation Zrotation
     End Site
     {
      OFFSET 0.000000 -1.423100 5.872300
     }
    }
   }
  }
 }
 JOINT LeftHip
 {
  OFFSET 7.771700 -0.012900 -0.001300
  CHANNELS 3 Yrotation Xrotation Zrotation
  JOINT LeftKnee
  {
   OFFSET 0.000000 -40.869800 0.001200
   CHANNELS 3 Yrotation Xrotation Zrotation
   JOINT LeftAnkle
   {
    OFFSET 0.000000 -39.717900 0.002100
    CHANNELS 3 Yrotation Xrotation Zrotation
    JOINT LeftToe
    {
     OFFSET 0.000000 -4.965400 11.033500
     CHANNELS 3 Yrotation Xrotation Zrotation
     End Site
     {
      OFFSET 0.000000 -1.423100 5.872300
     }
    }
   }
  }
 }
}
MOTION
Frames: 9
Frame Time: 0.008333
0.000000 85.388000 0.000000 0.000000 -5.767877 0.000000 0.000000 11.653817 0.000000 0.000000 -5.885947 0.000000 0.000000 -0.000000 0.000000 0.000000 -0.000000 0.000000 0.000000 12.528835 0.000000 0.000000 0.711642 0.000000 0.000000 -0.000000 0.000000 0.000000 0.000000 -90.000000 0.000000 -2.309062 0.000000 0.000000 2.309062 0.000000 0.000000 -0.000000 0.000000 0.000000 -0.000000 90.000000 0.000000 -2.309062 0.000000 0.000000 2.309062 0.000000 0.000000 8.520406 0.000000 0.000000 1.905762 0.000000 -0.000000 -4.658285 0.000000 0.000000 -0.000000 0.000000 0.000000 8.520406 0.000000 0.000000 1.905762 0.000000 -0.000000 -4.658285 0.000000 0.000000 -0.000000 0.000000
-6.410711 55.609211 27.165656 179.038761 -25.908294 -12.048680 0.460559 11.224127 5.713162 0.011398 6.555117 1.766016 0.047263 8.195771 2.207082 0.010865 6.552872 1.770448 0.045768 17.166157 0.722403 -0.115610 -7.694588 0.746663 2.778885 2.944277 -0.856197 -12.095085 -9.674536 8.915925 -69.255651 -40.676903 73.931918 3.490463 -3.210160 -1.292712 -8.635382 3.322470 -3.940845 5.509816 -2.041928 -2.713631 -103.788840 -83.901988 113.101692 12.326316 -2.006226 -10.479514 -20.668798 -37.431392 11.822842 45.012886 85.433799 41.726827 1.881660 -20.474152 -1.274174 -0.967741 2.513515 -0.433639 -18.878109 -50.705408 21.093361 178.569471 79.798488 173.812722 -2.072580 -18.470476 2.087183 -0.097920 -0.525983 -0.045643
-6.416105 55.606271 27.153420 179.073650 -25.891832 -12.059831 0.433458 11.226123 5.706179 0.004998 6.545764 1.775200 0.039366 8.184088 2.218414 0.004409 6.543524 1.779587 0.220550 17.143995 0.751302 0.061109 -7.718432 0.737333 2.761648 2.900681 -0.856721 -12.088691 -9.625137 8.860854 -69.121048 -40.769951 73.941343 3.542540 -3.187013 -1.004736 -8.636350 3.303083 -3.940918 5.422967 -2.016178 -2.664078 -101.869932 -83.243439 111.166750 12.260647 -2.219263 -10.850947 -20.700149 -37.439664 11.817210 45.119029 85.452258 41.835539 1.876320 -20.482858 -1.279876 -0.890455 2.501722 -0.423582 -18.901089 -50.724712 21.069172 178.663486 79.783893 173.915084 -2.037193 -18.475056 2.082891 -0.105862 -0.528343 -0.045807
-6.417007 55.603230 27.140609 179.078169 -25.875469 -12.088342 0.436982 11.223045 5.731565 -0.000684 6.537316 1.784717 0.031242 8.171368 2.234514 0.004969 6.544440 1.769065 0.395344 17.115531 0.798973 0.237818 -7.740743 0.729881 2.747479 2.854313 -0.849405 -12.074067 -9.578316 8.821985 -69.003406 -40.883573 73.948106 3.583823 -3.162652 -0.735664 -8.645144 3.269522 -3.926050 5.330835 -1.997215 -2.600131 -100.702029 -82.735396 109.938264 12.221690 -2.433546 -11.184110 -20.717203 -37.436949 11.838268 45.207528 85.451608 41.928385 1.916447 -20.502985 -1.288764 -0.939020 2.509282 -0.424853 -18.942498 -50.737650 21.109320 179.058889 79.764496 174.309609 -1.966578 -18.486448 2.080491 -0.109850 -0.531690 -0.045181
-6.421285 55.599635 27.124806 179.094741 -25.866230 -12.102532 0.426083 11.228657 5.739391 -0.007193 6.528648 1.794157 0.029135 8.165288 2.234726 0.002051 6.541249 1.772983 0.563154 17.089502 0.848530 0.408696 -7.756401 0.723025 2.736417 2.815300 -0.849027 -12.100965 -9.543230 8.779195 -68.845295 -40.987139 73.944019 3.623455 -3.138168 -0.486062 -8.650202 3.241419 -3.918873 5.217312 -1.996995 -2.521350 -99.962408 -82.361977 109.110238 12.197302 -2.645173 -11.460058 -20.727357 -37.432190 11.841362 45.318352 85.460065 42.046585 1.884346 -20.533542 -1.276913 -0.930927 2.516653 -0.426923 -18.979230 -50.746308 21.124020 179.223213 79.740190 174.467849 -1.948352 -18.487579 2.070718 -0.101981 -0.545801 -0.033224
-6.425912 55.595612 27.108203 179.135355 -25.853653 -12.124702 0.392282 11.234950 5.746867 -0.014963 6.519044 1.803165 0.028376 8.160243 2.233837 -0.026138 6.506998 1.828833 0.723663 17.100808 0.838725 0.568665 -7.762842 0.715309 2.746782 2.809503 -0.902093 -12.161050 -9.509326 8.713989 -68.657912 -41.074305 73.934151 3.667270 -3.114782 -0.241014 -8.640018 3.220416 -3.962046 5.085596 -1.990318 -2.444854 -99.404908 -82.087353 108.452747 12.187718 -2.851219 -11.678547 -20.756583 -37.424739 11.832840 45.551339 85.461905 42.291157 1.862248 -20.569766 -1.279453 -0.930987 2.525738 -0.423430 -19.031812 -50.754548 21.133116 179.270974 79.715526 174.508639 -1.945394 -18.498986 2.067425 -0.097194 -0.551458 -0.024391
-6.428371 55.589484 27.096533 179.145642 -25.814700 -12.145792 0.380507 11.206808 5.766098 -0.022406 6.511874 1.812182 0.017045 8.147706 2.245715 -0.031689 6.496857 1.835142 0.864653 17.101989 0.859108 0.711901 -7.760357 0.704903 2.750549 2.779567 -0.916378 -12.162825 -9.464949 8.673568 -68.526763 -41.214178 73.907800 3.725041 -3.091496 0.025401 -8.650406 3.171472 -3.959574 4.940600 -1.973016 -2.368537 -98.870948 -81.868061 107.823642 12.197706 -3.052601 -11.861473 -20.792713 -37.449054 11.864961 45.703890 85.468322 42.443950 1.851652 -20.587397 -1.273662 -0.934486 2.526814 -0.425690 -19.109651 -50.788504 21.188972 179.521837 79.692326 174.741360 -1.897310 -18.510496 2.062908 -0.099969 -0.551189 -0.024359
-6.428947 55.583448 27.086131 179.144331 -25.772737 -12.171192 0.378575 11.168091 5.793107 -0.027435 6.509966 1.819339 0.008087 8.135740 2.259781 -0.038632 6.483965 1.841011 0.984015 17.112701 0.868246 0.835092 -7.747637 0.687576 2.756885 2.744604 -0.927234 -12.164732 -9.414623 8.630938 -68.392443 -41.367223 73.858616 3.804253 -3.061377 0.350817 -8.650568 3.162683 -3.980341 4.763378 -1.995388 -2.266421 -98.331612 -81.659186 107.201144 12.229003 -3.252486 -12.022320 -20.826926 -37.476411 11.909015 45.824178 85.473564 42.563899 1.865935 -20.596982 -1.276706 -0.940223 2.526753 -0.424968 -19.201576 -50.822417 21.270972 -179.888203 79.670992 175.302920 -1.789405 -18.521913 2.056985 -0.113551 -0.545967 -0.033201
-6.429830 55.576698 27.078421 179.144396 -25.715560 -12.192932 0.371680 11.123979 5.818001 -0.029188 6.498336 1.818881 -0.016821 8.104321 2.297757 -0.034618 6.485581 1.825325 1.078084 17.134817 0.860677 0.935707 -7.722845 0.658501 2.760363 2.711242 -0.939062 -12.174628 -9.394268 8.576454 -68.230297 -41.506151 73.749422 3.912982 -2.998433 0.796340 -8.653573 3.158049 -4.001735 4.576840 -2.015287 -2.165975 -97.789568 -81.421916 106.594909 12.268197 -3.453859 -12.166023 -20.860933 -37.521024 11.953325 45.916310 85.479867 42.662219 1.868272 -20.608086 -1.278191 -0.944498 2.528202 -0.424684 -19.284135 -50.876931 21.347577 -179.626726 79.647296 175.549428 -1.747829 -18.531654 2.046497 -0.115859 -0.545510 -0.026135
